<svg width="68" height="42" viewBox="0 0 68 42" fill="none" xmlns="http://www.w3.org/2000/svg">
<path fill-rule="evenodd" clip-rule="evenodd" d="M21.1158 0.0471802H46.4357C58.0446 0.0471802 67.5515 9.47478 67.5515 21.0236C67.5515 32.5724 58.0446 42 46.4357 42H21.1158C12.8988 42 5.7328 37.0505 2.24535 30.3569C2.19758 30.2155 3.86961 29.2727 4.96839 28.8956C2.72305 29.1784 2.10202 29.4613 1.86316 29.6027C0.668824 27.0101 0 24.1347 0 21.0707C0 9.52191 9.50688 0.0471802 21.1158 0.0471802Z" fill="url(#paint0_linear_18_214)"/>
<path fill-rule="evenodd" clip-rule="evenodd" d="M21.1158 0H46.4357C58.0446 0 67.5515 8.90909 67.5515 19.8451C67.5515 30.7811 58.0446 39.1717 46.4357 39.6902H21.1158C13.5676 39.6902 6.87937 35.6835 3.15306 30.1683C4.25184 29.3198 5.35058 28.8013 6.83155 28.5185C5.39835 28.6599 3.96516 28.8013 2.43641 28.9899C0.859893 26.303 0 23.1919 0 19.8922C0 8.95622 9.50688 0 21.1158 0Z" fill="url(#paint1_radial_18_214)"/>
<path opacity="0.5" fill-rule="evenodd" clip-rule="evenodd" d="M20.4469 1.36704H47.1044C54.0793 1.36704 60.3376 4.66671 64.255 9.33337C60.4809 3.9125 53.8882 0.0471802 46.4356 0.0471802H21.1157C13.6631 0.0471802 7.07037 3.95964 3.34406 9.33337C7.26147 4.66671 13.472 1.36704 20.4469 1.36704Z" fill="white"/>
<path fill-rule="evenodd" clip-rule="evenodd" d="M34.7757 37.0033H22.1635C12.6089 36.5791 3.67529 29.7441 3.67529 19.8451C3.67529 10.0404 12.4178 2.68689 22.1158 2.68689H34.7757H47.4357C57.1337 2.68689 65.8762 10.0404 65.8762 19.8451C65.8762 29.7912 56.9425 36.5791 47.3879 37.0033H34.7757Z" fill="#63321A" style="mix-blend-mode:multiply"/>
<path opacity="0.5" fill-rule="evenodd" clip-rule="evenodd" d="M21.9246 3.39422H34.7756H47.6266C54.2194 3.39422 60.3343 6.64674 63.6785 11.7376C60.4777 6.2225 54.1716 2.64001 47.4356 2.64001H34.7756H22.1157C15.3319 2.64001 9.02584 6.2225 5.8728 11.7376C9.21693 6.64674 15.3319 3.39422 21.9246 3.39422Z" fill="#683C11"/>
<path opacity="0.65" fill-rule="evenodd" clip-rule="evenodd" d="M34.7757 37.0034H22.1635C15.9052 36.7206 9.8858 33.7038 6.4939 28.8486C9.69471 34.128 15.9052 37.4748 22.4024 37.7577H34.8235H47.2445C53.7895 37.4748 60.0478 34.0809 63.2486 28.7072C59.9045 33.6566 53.7895 36.7678 47.4834 37.0506H34.7757V37.0034Z" fill="#CA9E67"/>
<path fill-rule="evenodd" clip-rule="evenodd" d="M19.4436 6.22223C11.8477 6.22223 5.73273 12.3973 5.73273 19.8922C5.73273 27.3872 11.5133 33.5622 19.4436 33.4208C27.4218 33.2794 33.1546 27.34 33.1546 19.8922C33.1546 12.4444 26.9918 6.22223 19.4436 6.22223Z" fill="url(#paint2_radial_18_214)"/>
<path fill-rule="evenodd" clip-rule="evenodd" d="M7.73933 15.6497C6.06726 19.7979 7.59602 21.5891 12.23 21.0235C17.6284 20.3635 24.1256 17.5824 27.2309 14.1884C27.8041 13.5285 27.9953 12.5386 27.8519 11.6901C27.6608 10.7474 26.992 9.85176 26.1798 9.23896C23.6956 7.35344 20.1604 7.02348 17.1507 7.40059C12.6122 8.01338 9.4114 11.643 7.73933 15.6497Z" fill="url(#paint3_radial_18_214)"/>
<path fill-rule="evenodd" clip-rule="evenodd" d="M8.21704 26.5387C14.2365 36.7677 30.145 34.5051 32.1993 22.7206C30.1928 29.0371 24.8421 31.7239 19.6826 31.9125C15.5741 32.0539 11.2745 30.3569 8.21704 26.5387Z" fill="url(#paint4_radial_18_214)"/>
<path fill-rule="evenodd" clip-rule="evenodd" d="M11.37 10.5589C9.02909 13.1044 9.69786 15.1784 13.4719 14.0943C16.4817 13.1986 18.7748 12.4444 21.3546 10.7475C23.0267 9.66329 22.2145 7.68348 18.9659 7.58921C16.5773 7.44779 13.042 8.72052 11.37 10.5589Z" fill="url(#paint5_radial_18_214)"/>
<path fill-rule="evenodd" clip-rule="evenodd" d="M22.1668 30.3099C24.651 29.8385 27.6129 28.5187 29.3805 25.9261C29.9538 25.0776 30.1449 23.3806 28.855 24.5591C26.2275 26.9631 24.7943 27.8116 21.4024 28.9429C19.2526 29.65 18.2971 29.7914 18.2493 30.0742C18.2493 30.5456 19.8737 30.7813 22.1668 30.3099Z" fill="url(#paint6_radial_18_214)"/>
<path d="M42.3071 19.2991C42.3071 18.1791 42.1511 17.3671 41.8391 16.8631C41.5351 16.3591 41.1151 16.1071 40.5791 16.1071C40.0511 16.1071 39.5471 16.3431 39.0671 16.8151C38.5951 17.2791 38.2231 17.8671 37.9511 18.5791C37.6871 19.2911 37.5551 20.0111 37.5551 20.7391C37.5551 21.7391 37.7191 22.5591 38.0471 23.1991C38.3831 23.8391 38.8871 24.1591 39.5591 24.1591C40.1191 24.1591 40.6111 23.9151 41.0351 23.4271C41.4671 22.9311 41.7871 22.3191 41.9951 21.5911C42.2031 20.8631 42.3071 20.0991 42.3071 19.2991ZM42.5231 23.6911C42.1631 24.0831 41.7111 24.3991 41.1671 24.6391C40.6311 24.8791 40.0431 24.9991 39.4031 24.9991C38.7631 24.9991 38.1991 24.8551 37.7111 24.5671C37.2311 24.2791 36.8471 23.8951 36.5591 23.4151C35.9831 22.4551 35.6951 21.3351 35.6951 20.0551C35.6951 18.7751 36.0111 17.6351 36.6431 16.6351C37.2831 15.6351 38.1351 15.0031 39.1991 14.7391C39.2631 14.7551 39.3231 14.7871 39.3791 14.8351C39.4431 14.8831 39.4791 14.9351 39.4871 14.9911C38.4551 15.7431 37.8311 16.7671 37.6151 18.0631C37.9511 17.1191 38.4551 16.3831 39.1271 15.8551C39.8071 15.3191 40.5351 15.0511 41.3111 15.0511C42.0871 15.0511 42.7471 15.3871 43.2911 16.0591C43.8431 16.7231 44.1191 17.6871 44.1191 18.9511C44.1191 20.1911 43.8871 21.3071 43.4231 22.2991C43.1831 22.8271 42.8831 23.2911 42.5231 23.6911ZM49.9842 20.6911L48.8322 20.6791C48.5042 20.6791 48.2522 20.6831 48.0762 20.6911C47.9482 21.8111 47.8842 22.7191 47.8842 23.4151C47.8842 24.1111 47.9082 24.5991 47.9562 24.8791C47.7002 24.8951 47.5322 24.9031 47.4522 24.9031C46.9962 24.9031 46.6682 24.8231 46.4682 24.6631C46.2682 24.5031 46.1682 24.2231 46.1682 23.8231C46.1682 23.4151 46.2802 22.4431 46.5042 20.9071C46.2482 20.9871 46.0602 21.0551 45.9402 21.1111C45.9242 20.9351 45.9162 20.8031 45.9162 20.7151C45.9162 20.1631 46.1682 19.8191 46.6722 19.6831C46.8242 18.5871 46.9162 17.6391 46.9482 16.8391C46.5402 16.8391 46.2802 16.7831 46.1682 16.6711C46.0642 16.5591 46.0122 16.3111 46.0122 15.9271C46.0442 15.5671 46.0762 15.3311 46.1082 15.2191C47.0122 15.3391 48.0042 15.3991 49.0842 15.3991C50.1642 15.3991 51.2082 15.3031 52.2162 15.1111C52.1042 15.9511 51.5922 16.4551 50.6802 16.6231C50.1842 16.7191 49.4762 16.7831 48.5562 16.8151C48.5482 16.9191 48.4322 17.8511 48.2082 19.6111C48.6722 19.6271 48.9882 19.6351 49.1562 19.6351C49.9162 19.6351 50.4562 19.5031 50.7762 19.2391C50.7922 19.3991 50.8002 19.5191 50.8002 19.5991C50.8002 20.3271 50.5282 20.6911 49.9842 20.6911ZM56.5785 20.6911L55.4265 20.6791C55.0985 20.6791 54.8465 20.6831 54.6705 20.6911C54.5425 21.8111 54.4785 22.7191 54.4785 23.4151C54.4785 24.1111 54.5025 24.5991 54.5505 24.8791C54.2945 24.8951 54.1265 24.9031 54.0465 24.9031C53.5905 24.9031 53.2625 24.8231 53.0625 24.6631C52.8625 24.5031 52.7625 24.2231 52.7625 23.8231C52.7625 23.4151 52.8745 22.4431 53.0985 20.9071C52.8425 20.9871 52.6545 21.0551 52.5345 21.1111C52.5185 20.9351 52.5105 20.8031 52.5105 20.7151C52.5105 20.1631 52.7625 19.8191 53.2665 19.6831C53.4185 18.5871 53.5105 17.6391 53.5425 16.8391C53.1345 16.8391 52.8745 16.7831 52.7625 16.6711C52.6585 16.5591 52.6065 16.3111 52.6065 15.9271C52.6385 15.5671 52.6705 15.3311 52.7025 15.2191C53.6065 15.3391 54.5985 15.3991 55.6785 15.3991C56.7585 15.3991 57.8025 15.3031 58.8105 15.1111C58.6985 15.9511 58.1865 16.4551 57.2745 16.6231C56.7785 16.7191 56.0705 16.7831 55.1505 16.8151C55.1425 16.9191 55.0265 17.8511 54.8025 19.6111C55.2665 19.6271 55.5825 19.6351 55.7505 19.6351C56.5105 19.6351 57.0505 19.5031 57.3705 19.2391C57.3865 19.3991 57.3945 19.5191 57.3945 19.5991C57.3945 20.3271 57.1225 20.6911 56.5785 20.6911Z" fill="#D4783A"/>
<defs>
<linearGradient id="paint0_linear_18_214" x1="33.7929" y1="41.9906" x2="33.7929" y2="0.0698082" gradientUnits="userSpaceOnUse">
<stop stop-color="#692705"/>
<stop offset="1" stop-color="#823B00"/>
</linearGradient>
<radialGradient id="paint1_radial_18_214" cx="0" cy="0" r="1" gradientUnits="userSpaceOnUse" gradientTransform="translate(13.5839 -1.41414) scale(63.1296 62.29)">
<stop stop-color="#F59547"/>
<stop offset="1" stop-color="#A14C1F"/>
</radialGradient>
<radialGradient id="paint2_radial_18_214" cx="0" cy="0" r="1" gradientUnits="userSpaceOnUse" gradientTransform="translate(14.1838 5.08762) scale(33.6568 33.2092)">
<stop stop-color="#FF5151"/>
<stop offset="1" stop-color="#750000"/>
</radialGradient>
<radialGradient id="paint3_radial_18_214" cx="0" cy="0" r="1" gradientUnits="userSpaceOnUse" gradientTransform="translate(14.2723 3.46315) scale(28.3817 28.0042)">
<stop stop-color="#FF2929"/>
<stop offset="1"/>
</radialGradient>
<radialGradient id="paint4_radial_18_214" cx="0" cy="0" r="1" gradientUnits="userSpaceOnUse" gradientTransform="translate(26.9781 31.9789) scale(22.4697 22.1709)">
<stop stop-color="#FF002E"/>
<stop offset="1"/>
</radialGradient>
<radialGradient id="paint5_radial_18_214" cx="0" cy="0" r="1" gradientUnits="userSpaceOnUse" gradientTransform="translate(16.0021 6.03412) scale(27.0645 26.7046)">
<stop stop-color="#FF2929"/>
<stop offset="1"/>
</radialGradient>
<radialGradient id="paint6_radial_18_214" cx="0" cy="0" r="1" gradientUnits="userSpaceOnUse" gradientTransform="translate(27.6631 31.9329) scale(11.694 11.5384)">
<stop stop-color="#FF1111"/>
<stop offset="1"/>
</radialGradient>
</defs>
</svg>
