<svg width="68" height="42" viewBox="0 0 68 42" fill="none" xmlns="http://www.w3.org/2000/svg">
<path fill-rule="evenodd" clip-rule="evenodd" d="M21.1158 0.0472412H46.4357C58.0446 0.0472412 67.5515 9.47484 67.5515 21.0236C67.5515 32.5725 58.0446 42.0001 46.4357 42.0001H21.1158C12.8988 42.0001 5.7328 37.0506 2.24535 30.357C2.19758 30.2156 3.86961 29.2728 4.96839 28.8957C2.72305 29.1785 2.10202 29.4613 1.86316 29.6028C0.668824 27.0102 0 24.1347 0 21.0708C0 9.52197 9.50688 0.0472412 21.1158 0.0472412Z" fill="url(#paint0_linear_18_697)"/>
<path fill-rule="evenodd" clip-rule="evenodd" d="M21.1158 0H46.4357C58.0446 0 67.5515 8.90909 67.5515 19.8451C67.5515 30.7811 58.0446 39.1717 46.4357 39.6902H21.1158C13.5676 39.6902 6.87937 35.6835 3.15306 30.1683C4.25184 29.3198 5.35058 28.8013 6.83155 28.5185C5.39835 28.6599 3.96516 28.8013 2.43641 28.9899C0.859893 26.303 0 23.1919 0 19.8922C0 8.95622 9.50688 0 21.1158 0Z" fill="url(#paint1_radial_18_697)"/>
<path opacity="0.5" fill-rule="evenodd" clip-rule="evenodd" d="M20.4469 1.3671H47.1044C54.0793 1.3671 60.3376 4.66677 64.255 9.33343C60.4809 3.91256 53.8882 0.0472412 46.4356 0.0472412H21.1157C13.6631 0.0472412 7.07037 3.9597 3.34406 9.33343C7.26147 4.66677 13.472 1.3671 20.4469 1.3671Z" fill="white"/>
<path fill-rule="evenodd" clip-rule="evenodd" d="M34.7757 37.0033H22.1635C12.6089 36.5791 3.67529 29.7441 3.67529 19.8451C3.67529 10.0404 12.4178 2.68689 22.1158 2.68689H34.7757H47.4357C57.1337 2.68689 65.8762 10.0404 65.8762 19.8451C65.8762 29.7912 56.9425 36.5791 47.3879 37.0033H34.7757Z" fill="#63321A" style="mix-blend-mode:multiply"/>
<path opacity="0.5" fill-rule="evenodd" clip-rule="evenodd" d="M21.9246 3.39434H34.7756H47.6266C54.2194 3.39434 60.3343 6.64687 63.6785 11.7378C60.4777 6.22263 54.1716 2.64014 47.4356 2.64014H34.7756H22.1157C15.3319 2.64014 9.02584 6.22263 5.8728 11.7378C9.21693 6.64687 15.3319 3.39434 21.9246 3.39434Z" fill="#683C11"/>
<path opacity="0.65" fill-rule="evenodd" clip-rule="evenodd" d="M34.7757 37.0034H22.1635C15.9052 36.7206 9.8858 33.7038 6.4939 28.8486C9.69471 34.128 15.9052 37.4748 22.4024 37.7577H34.8235H47.2445C53.7895 37.4748 60.0478 34.0809 63.2486 28.7072C59.9045 33.6566 53.7895 36.7678 47.4834 37.0506H34.7757V37.0034Z" fill="#CA9E67"/>
<path d="M17.2937 19.299C17.2937 18.179 17.1377 17.367 16.8257 16.863C16.5217 16.359 16.1017 16.107 15.5657 16.107C15.0377 16.107 14.5337 16.343 14.0537 16.815C13.5817 17.279 13.2097 17.867 12.9377 18.579C12.6737 19.291 12.5417 20.011 12.5417 20.739C12.5417 21.739 12.7057 22.559 13.0337 23.199C13.3697 23.839 13.8737 24.159 14.5457 24.159C15.1057 24.159 15.5977 23.915 16.0217 23.427C16.4537 22.931 16.7737 22.319 16.9817 21.591C17.1897 20.863 17.2937 20.099 17.2937 19.299ZM17.5097 23.691C17.1497 24.083 16.6977 24.399 16.1537 24.639C15.6177 24.879 15.0297 24.999 14.3897 24.999C13.7497 24.999 13.1857 24.855 12.6977 24.567C12.2177 24.279 11.8337 23.895 11.5457 23.415C10.9697 22.455 10.6817 21.335 10.6817 20.055C10.6817 18.775 10.9977 17.635 11.6297 16.635C12.2697 15.635 13.1217 15.003 14.1857 14.739C14.2497 14.755 14.3097 14.787 14.3657 14.835C14.4297 14.883 14.4657 14.935 14.4737 14.991C13.4417 15.743 12.8177 16.767 12.6017 18.063C12.9377 17.119 13.4417 16.383 14.1137 15.855C14.7937 15.319 15.5217 15.051 16.2977 15.051C17.0737 15.051 17.7337 15.387 18.2777 16.059C18.8297 16.723 19.1057 17.687 19.1057 18.951C19.1057 20.191 18.8737 21.307 18.4097 22.299C18.1697 22.827 17.8697 23.291 17.5097 23.691ZM26.1348 24.243C25.9908 24.035 25.5068 23.147 24.6828 21.579C23.8668 20.003 23.2868 18.907 22.9428 18.291C22.9108 18.563 22.8388 19.083 22.7268 19.851C22.5108 21.403 22.4028 22.707 22.4028 23.763C22.4028 24.011 22.4188 24.343 22.4508 24.759C21.8908 24.759 21.5108 24.695 21.3108 24.567C21.1188 24.431 21.0228 24.243 21.0228 24.003C21.0228 23.931 21.1548 22.859 21.4188 20.787C21.6828 18.707 21.8188 17.251 21.8268 16.419L21.7188 16.263C21.5188 15.967 21.2548 15.719 20.9268 15.519C20.8468 15.471 20.7988 15.439 20.7828 15.423C21.1668 15.191 21.5348 15.075 21.8868 15.075C22.5908 15.075 23.1068 15.307 23.4348 15.771C23.7628 16.227 24.3748 17.359 25.2708 19.167C25.3668 19.367 25.5108 19.671 25.7028 20.079C25.9028 20.479 26.0628 20.803 26.1828 21.051C26.4628 21.651 26.7628 22.215 27.0828 22.743C27.1068 22.431 27.2148 21.475 27.4068 19.875C27.6068 18.267 27.7068 16.995 27.7068 16.059C27.7068 15.811 27.6908 15.487 27.6588 15.087C28.2188 15.087 28.5948 15.151 28.7868 15.279C28.9788 15.407 29.0748 15.587 29.0748 15.819C29.0748 15.907 28.9428 17.023 28.6788 19.167C28.4148 21.311 28.2828 22.795 28.2828 23.619C28.2828 23.915 28.2908 24.131 28.3068 24.267C28.3708 24.323 28.4748 24.391 28.6188 24.471C28.1228 24.791 27.6628 24.951 27.2388 24.951C26.8148 24.951 26.4468 24.715 26.1348 24.243Z" fill="#D4783A"/>
<path fill-rule="evenodd" clip-rule="evenodd" d="M48.1555 6.3634C40.5596 6.3634 34.4445 12.5385 34.4445 20.0334C34.4445 27.5284 40.2251 33.7034 48.1555 33.562C56.1337 33.4206 61.8664 27.4812 61.8664 20.0334C61.8664 12.5385 55.7515 6.3634 48.1555 6.3634Z" fill="url(#paint2_radial_18_697)"/>
<path fill-rule="evenodd" clip-rule="evenodd" d="M48.1555 6.97632C41.1806 6.97632 35.4955 12.4915 35.4955 19.1851C35.4955 25.8315 40.7984 31.3938 48.1555 31.2524C55.5126 31.1581 60.8154 25.8315 60.8154 19.1851C60.8154 12.4915 55.1304 6.97632 48.1555 6.97632Z" fill="url(#paint3_radial_18_697)"/>
<path fill-rule="evenodd" clip-rule="evenodd" d="M48.1555 8.0603C41.8016 8.0603 36.5944 13.1512 36.5944 19.232C36.5944 25.3599 41.4195 30.4037 48.1555 30.3094C54.8438 30.2152 59.7166 25.3599 59.7166 19.232C59.7166 13.1041 54.5093 8.0603 48.1555 8.0603Z" fill="url(#paint4_radial_18_697)"/>
<path fill-rule="evenodd" clip-rule="evenodd" d="M36.4989 15.7909C34.8268 19.9391 36.3556 21.7303 40.9896 21.1646C46.388 20.5047 52.8852 17.7236 55.9904 14.3296C56.5637 13.6697 56.7548 12.6798 56.6114 11.8313C56.4203 10.8886 55.7516 9.99293 54.9394 9.38014C52.4552 7.49462 48.92 7.16466 45.9103 7.54176C41.3718 8.15455 38.1232 11.7842 36.4989 15.7909Z" fill="url(#paint5_radial_18_697)"/>
<path fill-rule="evenodd" clip-rule="evenodd" d="M36.9288 26.6327C42.9483 36.8617 58.8568 34.5991 60.9111 22.8146C58.9046 29.1311 53.554 31.8179 48.3945 32.0065C44.3337 32.1479 39.9863 30.4981 36.9288 26.6327Z" fill="url(#paint6_radial_18_697)"/>
<path fill-rule="evenodd" clip-rule="evenodd" d="M40.1295 10.6532C37.7886 13.1986 38.4575 15.2727 42.2316 14.1885C45.2413 13.2929 47.5345 12.5387 50.1142 10.8417C51.7863 9.75754 50.9741 7.77775 47.7256 7.68347C45.3369 7.54206 41.7538 8.86191 40.1295 10.6532Z" fill="url(#paint7_linear_18_697)"/>
<path fill-rule="evenodd" clip-rule="evenodd" d="M42.375 27.1514C40.464 27.6228 41.754 29.3198 42.9483 29.9326C46.4357 31.6767 51.1653 31.2524 54.7961 29.2255C56.9936 27.9528 58.7135 25.9258 59.7167 23.6161C60.7199 21.212 59.5256 18.1952 57.4236 20.2221C55.1305 22.4376 53.2673 23.6632 50.9264 24.606C47.8212 25.8316 45.1936 26.4443 42.375 27.1514Z" fill="url(#paint8_radial_18_697)"/>
<path fill-rule="evenodd" clip-rule="evenodd" d="M50.8785 30.4507C53.3627 29.9794 56.3247 28.6595 58.0923 26.0669C58.6656 25.2184 58.8567 23.5215 57.5668 24.6999C54.9393 27.1039 53.5061 27.9524 50.1142 29.0837C47.9644 29.7908 47.0089 29.9322 46.9611 30.2151C47.0089 30.6393 48.6331 30.9221 50.8785 30.4507Z" fill="url(#paint9_linear_18_697)"/>
<defs>
<linearGradient id="paint0_linear_18_697" x1="33.7929" y1="41.9906" x2="33.7929" y2="0.0698692" gradientUnits="userSpaceOnUse">
<stop stop-color="#692705"/>
<stop offset="1" stop-color="#823B00"/>
</linearGradient>
<radialGradient id="paint1_radial_18_697" cx="0" cy="0" r="1" gradientUnits="userSpaceOnUse" gradientTransform="translate(13.5839 -1.41414) scale(63.1296 62.29)">
<stop stop-color="#F59547"/>
<stop offset="1" stop-color="#A14C1F"/>
</radialGradient>
<radialGradient id="paint2_radial_18_697" cx="0" cy="0" r="1" gradientUnits="userSpaceOnUse" gradientTransform="translate(41.6464 7.28919) scale(28.5326 28.1532)">
<stop stop-color="#87E300"/>
<stop offset="1" stop-color="#349400"/>
</radialGradient>
<radialGradient id="paint3_radial_18_697" cx="0" cy="0" r="1" gradientUnits="userSpaceOnUse" gradientTransform="translate(41.2207 5.18083) scale(33.406 32.9617)">
<stop stop-color="#3AAA35"/>
<stop offset="1"/>
</radialGradient>
<radialGradient id="paint4_radial_18_697" cx="0" cy="0" r="1" gradientUnits="userSpaceOnUse" gradientTransform="translate(45.8452 10.5228) scale(20.8698 20.5922)">
<stop stop-color="#8FE561"/>
<stop offset="1"/>
</radialGradient>
<radialGradient id="paint5_radial_18_697" cx="0" cy="0" r="1" gradientUnits="userSpaceOnUse" gradientTransform="translate(43.0047 3.5949) scale(28.3821 28.0047)">
<stop stop-color="#73D439"/>
<stop offset="1"/>
</radialGradient>
<radialGradient id="paint6_radial_18_697" cx="0" cy="0" r="1" gradientUnits="userSpaceOnUse" gradientTransform="translate(55.7105 32.1107) scale(22.4697 22.1709)">
<stop stop-color="#73D439"/>
<stop offset="1"/>
</radialGradient>
<linearGradient id="paint7_linear_18_697" x1="38.6519" y1="11.0713" x2="83.1262" y2="11.0713" gradientUnits="userSpaceOnUse">
<stop stop-color="#B4FF87"/>
<stop offset="1"/>
</linearGradient>
<radialGradient id="paint8_radial_18_697" cx="0" cy="0" r="1" gradientUnits="userSpaceOnUse" gradientTransform="translate(55.9221 33.5504) scale(19.2598 19.0037)">
<stop stop-color="#73D439"/>
<stop offset="1"/>
</radialGradient>
<linearGradient id="paint9_linear_18_697" x1="50.6292" y1="27.5013" x2="125.292" y2="27.5013" gradientUnits="userSpaceOnUse">
<stop stop-color="#B4FF87"/>
<stop offset="1"/>
</linearGradient>
</defs>
</svg>
